<svg xmlns="http://www.w3.org/2000/svg" viewBox="0 0 16 16" id="Square-Github--Streamline-Font-Awesome" height="16" width="16">
  <desc>
    Square Github Streamline Icon: https://streamlinehq.com
  </desc>
<!--! Font Awesome Free 6.5.2 by @fontawesome - https://fontawesome.com License - https://fontawesome.com/license/free (Icons: CC BY 4.0, Fonts: SIL OFL 1.1, Code: MIT License) Copyright 2024 Fonticons, Inc.-->
  <path d="M15.839999999999998 2.4c0 -1.2355 -1.0045 -2.2399999999999998 -2.2399999999999998 -2.2399999999999998H2.4C1.1645 0.16 0.16 1.1645 0.16 2.4v11.200000000000001c0 1.2355 1.0045 2.2399999999999998 2.2399999999999998 2.2399999999999998h11.200000000000001c1.2355 0 2.2399999999999998 -1.0045 2.2399999999999998 -2.2399999999999998V2.4ZM9.463 13.3095c0 -0.063 0 -0.21 0.0035 -0.40599999999999997 0.0035 -0.399 0.0035 -1.008 0.0035 -1.5294999999999999 0 -0.5459999999999999 -0.182 -0.8924999999999998 -0.39549999999999996 -1.0744999999999998 1.295 -0.1435 2.66 -0.322 2.66 -2.5585 0 -0.6369999999999999 -0.22749999999999998 -0.9555 -0.5984999999999999 -1.365 0.0595 -0.1505 0.25899999999999995 -0.7699999999999999 -0.0595 -1.575 -0.4865 -0.1505 -1.5995 0.6265000000000001 -1.5995 0.6265000000000001 -0.46199999999999997 -0.12949999999999998 -0.9624999999999999 -0.196 -1.456 -0.196s-0.994 0.0665 -1.456 0.196c0 0 -1.113 -0.7769999999999999 -1.5995 -0.6265000000000001 -0.31849999999999995 0.8015 -0.1225 1.4209999999999998 -0.0595 1.575 -0.371 0.4095 -0.5459999999999999 0.728 -0.5459999999999999 1.365 0 2.226 1.3055 2.415 2.6005 2.5585 -0.16799999999999998 0.1505 -0.31849999999999995 0.4095 -0.371 0.7805 -0.3325 0.1505 -1.183 0.4095 -1.6905000000000001 -0.4865 -0.31849999999999995 -0.5529999999999999 -0.8924999999999998 -0.5984999999999999 -0.8924999999999998 -0.5984999999999999 -0.567 -0.007 -0.0385 0.357 -0.0385 0.357 0.37799999999999995 0.17500000000000002 0.644 0.847 0.644 0.847 0.33949999999999997 1.0395 1.9635 0.6895 1.9635 0.6895 0 0.315 0.0035 0.7594999999999998 0.0035 1.071 0 0.16799999999999998 0.0035 0.301 0.0035 0.35000000000000003 0 0.1505 -0.105 0.3325 -0.40249999999999997 0.27999999999999997 -2.31 -0.7735 -3.927 -2.9715 -3.927 -5.540499999999999 0 -3.2129999999999996 2.4570000000000003 -5.6525 5.669999999999999 -5.6525s5.817 2.4395 5.817 5.6525c0.0035 2.569 -1.5644999999999998 4.7705 -3.8745 5.540499999999999 -0.294 0.0525 -0.40249999999999997 -0.12949999999999998 -0.40249999999999997 -0.27999999999999997Zm-3.1674999999999995 -1.918c-0.007 -0.0525 0.0385 -0.098 0.105 -0.112 0.0665 -0.007 0.12949999999999998 0.020999999999999998 0.13649999999999998 0.0665 0.010499999999999999 0.0455 -0.034999999999999996 0.091 -0.105 0.105 -0.0665 0.014 -0.12949999999999998 -0.014 -0.13649999999999998 -0.0595Zm-0.31849999999999995 0.112c-0.077 0.007 -0.12949999999999998 -0.0315 -0.12949999999999998 -0.08399999999999999 0 -0.0455 0.0525 -0.08399999999999999 0.1225 -0.08399999999999999 0.0665 -0.007 0.12949999999999998 0.0315 0.12949999999999998 0.08399999999999999 0 0.0455 -0.0525 0.08399999999999999 -0.1225 0.08399999999999999Zm-0.5005 -0.077c-0.0665 -0.014 -0.112 -0.0665 -0.098 -0.112s0.08399999999999999 -0.0665 0.1435 -0.0525c0.06999999999999999 0.020999999999999998 0.11549999999999999 0.0735 0.098 0.119 -0.014 0.0455 -0.08399999999999999 0.0665 -0.1435 0.0455Zm-0.4375 -0.2555c-0.0525 -0.0455 -0.0665 -0.112 -0.0315 -0.1435 0.0315 -0.0385 0.098 -0.0315 0.1505 0.020999999999999998 0.0455 0.0455 0.063 0.11549999999999999 0.0315 0.1435 -0.0315 0.0385 -0.098 0.0315 -0.1505 -0.020999999999999998Zm-0.2975 -0.35000000000000003c-0.0385 -0.0525 -0.0385 -0.112 0 -0.13649999999999998 0.0385 -0.0315 0.098 -0.007 0.12949999999999998 0.0455 0.0385 0.0525 0.0385 0.11549999999999999 0 0.1435 -0.0315 0.020999999999999998 -0.091 0 -0.12949999999999998 -0.0525Zm-0.2205 -0.308c-0.0385 -0.0455 -0.0455 -0.098 -0.014 -0.1225 0.0315 -0.0315 0.08399999999999999 -0.014 0.1225 0.020999999999999998 0.0385 0.0455 0.0455 0.098 0.014 0.1225 -0.0315 0.0315 -0.08399999999999999 0.014 -0.1225 -0.020999999999999998Zm-0.21 -0.224c-0.0455 -0.020999999999999998 -0.0665 -0.0595 -0.0525 -0.091 0.014 -0.020999999999999998 0.0525 -0.0315 0.098 -0.014 0.0455 0.0245 0.0665 0.063 0.0525 0.091 -0.014 0.0315 -0.0595 0.0385 -0.098 0.014Z" fill="#000000" stroke-width="0.0357"></path>
</svg>